<?xml version="1.0" encoding="UTF-8" standalone="no"?>
<svg
   width="63.822392"
   height="69.463715"
   viewBox="0 0 63.822392 69.463715"
   fill="none"
   version="1.1"
   id="svg28"
   sodipodi:docname="uada-logo.svg"
   inkscape:version="1.3.1 (9b9bdc1480, 2023-11-25, custom)"
   xmlns:inkscape="http://www.inkscape.org/namespaces/inkscape"
   xmlns:sodipodi="http://sodipodi.sourceforge.net/DTD/sodipodi-0.dtd"
   xmlns="http://www.w3.org/2000/svg"
   xmlns:svg="http://www.w3.org/2000/svg">
  <sodipodi:namedview
     id="namedview28"
     pagecolor="#ffffff"
     bordercolor="#666666"
     borderopacity="1.0"
     inkscape:showpageshadow="2"
     inkscape:pageopacity="0.0"
     inkscape:pagecheckerboard="0"
     inkscape:deskcolor="#d1d1d1"
     showgrid="false"
     inkscape:zoom="4.6684073"
     inkscape:cx="-32.130873"
     inkscape:cy="43.269575"
     inkscape:window-width="2560"
     inkscape:window-height="1338"
     inkscape:window-x="0"
     inkscape:window-y="27"
     inkscape:window-maximized="1"
     inkscape:current-layer="layer1" />
  <defs
     id="defs28">
    <clipPath
       clipPathUnits="userSpaceOnUse"
       id="clipPath29">
      <g
         id="g30">
        <rect
           width="383"
           height="69.471603"
           fill="#ffffff"
           id="rect29"
           x="0"
           y="0" />
      </g>
    </clipPath>
    <clipPath
       clipPathUnits="userSpaceOnUse"
       id="clipPath30">
      <g
         id="g31">
        <rect
           width="383"
           height="69.471603"
           fill="#ffffff"
           id="rect30"
           x="0"
           y="0" />
      </g>
    </clipPath>
    <clipPath
       clipPathUnits="userSpaceOnUse"
       id="clipPath31">
      <g
         id="g32">
        <rect
           width="383"
           height="69.471603"
           fill="#ffffff"
           id="rect31"
           x="0"
           y="0" />
      </g>
    </clipPath>
    <clipPath
       clipPathUnits="userSpaceOnUse"
       id="clipPath32">
      <g
         id="g33">
        <rect
           width="383"
           height="69.471603"
           fill="#ffffff"
           id="rect32"
           x="0"
           y="0" />
      </g>
    </clipPath>
    <clipPath
       clipPathUnits="userSpaceOnUse"
       id="clipPath33">
      <g
         id="g34">
        <rect
           width="383"
           height="69.471603"
           fill="#ffffff"
           id="rect33"
           x="0"
           y="0" />
      </g>
    </clipPath>
    <clipPath
       clipPathUnits="userSpaceOnUse"
       id="clipPath34">
      <g
         id="g35">
        <rect
           width="383"
           height="69.471603"
           fill="#ffffff"
           id="rect34"
           x="0"
           y="0" />
      </g>
    </clipPath>
    <clipPath
       clipPathUnits="userSpaceOnUse"
       id="clipPath35">
      <g
         id="g36">
        <rect
           width="383"
           height="69.471603"
           fill="#ffffff"
           id="rect35"
           x="0"
           y="0" />
      </g>
    </clipPath>
    <clipPath
       clipPathUnits="userSpaceOnUse"
       id="clipPath36">
      <g
         id="g37">
        <rect
           width="383"
           height="69.471603"
           fill="#ffffff"
           id="rect36"
           x="0"
           y="0" />
      </g>
    </clipPath>
    <clipPath
       clipPathUnits="userSpaceOnUse"
       id="clipPath37">
      <g
         id="g38">
        <rect
           width="383"
           height="69.471603"
           fill="#ffffff"
           id="rect37"
           x="0"
           y="0" />
      </g>
    </clipPath>
    <clipPath
       clipPathUnits="userSpaceOnUse"
       id="clipPath38">
      <g
         id="g39">
        <rect
           width="383"
           height="69.471603"
           fill="#ffffff"
           id="rect38"
           x="0"
           y="0" />
      </g>
    </clipPath>
    <clipPath
       clipPathUnits="userSpaceOnUse"
       id="clipPath39">
      <g
         id="g40">
        <rect
           width="383"
           height="69.471603"
           fill="#ffffff"
           id="rect39"
           x="0"
           y="0" />
      </g>
    </clipPath>
    <clipPath
       clipPathUnits="userSpaceOnUse"
       id="clipPath40">
      <g
         id="g41">
        <rect
           width="383"
           height="69.471603"
           fill="#ffffff"
           id="rect40"
           x="0"
           y="0" />
      </g>
    </clipPath>
    <clipPath
       clipPathUnits="userSpaceOnUse"
       id="clipPath41">
      <g
         id="g42">
        <rect
           width="383"
           height="69.471603"
           fill="#ffffff"
           id="rect41"
           x="0"
           y="0" />
      </g>
    </clipPath>
    <clipPath
       clipPathUnits="userSpaceOnUse"
       id="clipPath42">
      <g
         id="g43">
        <rect
           width="383"
           height="69.471603"
           fill="#ffffff"
           id="rect42"
           x="0"
           y="0" />
      </g>
    </clipPath>
    <clipPath
       clipPathUnits="userSpaceOnUse"
       id="clipPath43">
      <g
         id="g44">
        <rect
           width="383"
           height="69.471603"
           fill="#ffffff"
           id="rect43"
           x="0"
           y="0" />
      </g>
    </clipPath>
    <clipPath
       clipPathUnits="userSpaceOnUse"
       id="clipPath44">
      <g
         id="g45">
        <rect
           width="383"
           height="69.471603"
           fill="#ffffff"
           id="rect44"
           x="0"
           y="0" />
      </g>
    </clipPath>
    <clipPath
       clipPathUnits="userSpaceOnUse"
       id="clipPath45">
      <g
         id="g46">
        <rect
           width="383"
           height="69.471603"
           fill="#ffffff"
           id="rect45"
           x="0"
           y="0" />
      </g>
    </clipPath>
    <clipPath
       clipPathUnits="userSpaceOnUse"
       id="clipPath46">
      <g
         id="g47">
        <rect
           width="383"
           height="69.471603"
           fill="#ffffff"
           id="rect46"
           x="0"
           y="0" />
      </g>
    </clipPath>
    <clipPath
       clipPathUnits="userSpaceOnUse"
       id="clipPath47">
      <g
         id="g48">
        <rect
           width="383"
           height="69.471603"
           fill="#ffffff"
           id="rect47"
           x="0"
           y="0" />
      </g>
    </clipPath>
    <clipPath
       clipPathUnits="userSpaceOnUse"
       id="clipPath48">
      <g
         id="g49">
        <rect
           width="383"
           height="69.471603"
           fill="#ffffff"
           id="rect48"
           x="0"
           y="0" />
      </g>
    </clipPath>
    <clipPath
       clipPathUnits="userSpaceOnUse"
       id="clipPath49">
      <g
         id="g50">
        <rect
           width="383"
           height="69.471603"
           fill="#ffffff"
           id="rect49"
           x="0"
           y="0" />
      </g>
    </clipPath>
    <clipPath
       clipPathUnits="userSpaceOnUse"
       id="clipPath50">
      <g
         id="g51">
        <rect
           width="383"
           height="69.471603"
           fill="#ffffff"
           id="rect50"
           x="0"
           y="0" />
      </g>
    </clipPath>
    <clipPath
       clipPathUnits="userSpaceOnUse"
       id="clipPath51">
      <g
         id="g52">
        <rect
           width="383"
           height="69.471603"
           fill="#ffffff"
           id="rect51"
           x="0"
           y="0" />
      </g>
    </clipPath>
    <clipPath
       clipPathUnits="userSpaceOnUse"
       id="clipPath52">
      <g
         id="g53">
        <rect
           width="383"
           height="69.471603"
           fill="#ffffff"
           id="rect52"
           x="0"
           y="0" />
      </g>
    </clipPath>
    <clipPath
       clipPathUnits="userSpaceOnUse"
       id="clipPath53">
      <g
         id="g54">
        <rect
           width="383"
           height="69.471603"
           fill="#ffffff"
           id="rect53"
           x="0"
           y="0" />
      </g>
    </clipPath>
    <clipPath
       clipPathUnits="userSpaceOnUse"
       id="clipPath54">
      <g
         id="g55">
        <rect
           width="383"
           height="69.471603"
           fill="#ffffff"
           id="rect54"
           x="0"
           y="0" />
      </g>
    </clipPath>
    <clipPath
       clipPathUnits="userSpaceOnUse"
       id="clipPath55">
      <g
         id="g56">
        <rect
           width="383"
           height="69.471603"
           fill="#ffffff"
           id="rect55"
           x="0"
           y="0" />
      </g>
    </clipPath>
    <clipPath
       clipPathUnits="userSpaceOnUse"
       id="clipPath56">
      <g
         id="g57">
        <rect
           width="383"
           height="69.471603"
           fill="#ffffff"
           id="rect56"
           x="0"
           y="0" />
      </g>
    </clipPath>
  </defs>
  <g
     inkscape:groupmode="layer"
     id="layer1"
     inkscape:label="Layer 1">
    <path
       d="m 14.4522,20.0474 c 0,0 -4.2901,5.3339 -10.64223,2.36 0,0 -7.29345,-3.6712 -1.69816,-12.0207 0,0 4.29019,-5.92146 9.46029,-2.35858 0,0 5.9855,3.75038 4.4175,9.14818 z"
       fill="#c69c6d"
       id="path10"
       clip-path="url(#clipPath47)" />
    <path
       d="m 41.1853,15.0178 c 0,0 6.075,3.1947 10.7077,-2.0461 0,0 5.2165,-6.25342 -3.2661,-11.69705 0,0 -6.31,-3.73372 -9.6225,1.57933 0,0 -3.9839,5.80755 -0.3806,10.13862 z"
       fill="#c69c6d"
       id="path11"
       clip-path="url(#clipPath46)" />
    <path
       d="m 11.5049,17.7167 c 0,0 -2.08842,2.5961 -5.17981,1.1487 0,0 -3.55022,-1.7863 -0.82673,-5.8506 0,0 2.08847,-2.8823 4.60494,-1.1487 0,0 2.9123,1.8252 2.15,4.4518 l -0.7484,1.3974 z"
       fill="#f8ebc9"
       id="path12"
       clip-path="url(#clipPath45)" />
    <path
       d="m 43.3267,11.4549 c 0,0 2.9571,1.5543 5.212,-0.9959 0,0 2.5389,-3.04343 -1.5903,-5.69232 0,0 -3.0718,-1.81684 -4.6832,0.76953 0,0 -1.9388,2.82668 -0.1848,4.93389 l 1.2463,0.9862 z"
       fill="#f8ebc9"
       id="path13"
       clip-path="url(#clipPath44)" />
    <path
       d="m 21.7765,37.1896 c 0,0 -5.5953,8.5481 -5.9156,13.8557 0,0 -2.3081,-0.4697 -3.588,-0.439 0,0 -4.17969,-5.5188 -9.22663,-1.9225 0,0 -4.94205,3.478 -2.194765,10.6025 0,0 3.334785,9.3369 13.264995,8.741 0,0 2.2508,-0.1791 3.7433,-1.3042 0,0 -2.3262,0.3319 6.3241,-0.7932 0,0 8.0473,-0.193 17.5133,-0.0139 2.8297,0.0543 5.3489,1.1015 9.7624,1.0529 0,0 8.351,2.7865 12.0438,-8.7396 0,0 1.8226,-5.448 -3.2454,-9.383 0,0 -3.6493,-2.4322 -7.7102,2.2113 0,0 -2.4928,0.0027 -3.5388,0.3042 0,0 -2.4438,-9.0051 -4.6568,-12.6624 L 21.7779,37.1896 Z"
       fill="#c69c6d"
       id="path14"
       clip-path="url(#clipPath43)" />
    <path
       d="M 24.0328,45.5669 22.62,58.4919 c 0,0 8.7511,4.806 21.0103,-0.6184 l -2.746,-14.2542 c 0,0 -9.6154,3.1683 -16.8515,1.9461 z"
       fill="#f8ebc9"
       id="path15"
       clip-path="url(#clipPath42)" />
    <path
       d="m 18.1941,44.2763 c 0,0 -3.6033,15.6003 3.7894,23.1247 0,0 2.4466,2.7087 6.6137,1.9181 0,0 3.3838,-0.9207 3.5181,-3.9155 0.1916,-4.2866 -3.4622,-6.43 -5.0778,-10.9069 0,0 -2.364,-6.756 -1.3135,-9.3133 z"
       fill="#c69c6d"
       id="path16"
       clip-path="url(#clipPath41)" />
    <path
       d="m 44.2515,41.2968 c 0,0 7.5732,16.1894 1.554,24.8361 0,0 -1.9557,3.0768 -6.1968,2.9906 0,0 -3.4914,-0.346 -4.128,-3.2768 -0.9121,-4.1948 2.2367,-6.2964 3.1669,-11.5972 0,0 0.7932,-3.7918 -0.6337,-10.6302 l 6.2388,-2.3236 z"
       fill="#c69c6d"
       id="path17"
       clip-path="url(#clipPath40)" />
    <path
       d="m 34.0737,44.8722 c 0,0 -18.8885,5.3798 -25.07686,-8.6564 0,0 -5.83727,-13.6403 6.05696,-24.7179 0,0 11.0297,-9.41902 22.5029,-4.44766 0,0 12.3376,4.41156 14.6652,18.21436 0,0 3.4385,14.8195 -18.1497,19.6091 z"
       fill="#c69c6d"
       id="path18"
       clip-path="url(#clipPath39)" />
    <path
       d="m 38.0561,29.3776 c -3.1755,-1.8821 -7.5495,-0.857 -7.5495,-0.857 0,0 -4.4609,0.55 -6.7773,3.4116 0,0 -2.6312,2.6903 -1.6856,7.0312 0,0 0.7274,3.9155 5.2316,4.9686 0,0 2.6969,0.6236 6.026,0.0304 3.3294,-0.5929 5.6389,-2.1113 5.6389,-2.1113 3.8538,-2.542 3.1628,-6.466 3.1628,-6.466 -0.6352,-4.3963 -4.0457,-6.0103 -4.0457,-6.0103 z"
       fill="#f8ebc9"
       id="path19"
       clip-path="url(#clipPath38)" />
    <path
       d="m 19.1663,33.821 c 1.7228,0 3.1194,-1.3868 3.1194,-3.0974 0,-1.7108 -1.3966,-3.0976 -3.1194,-3.0976 -1.7228,0 -3.1194,1.3868 -3.1194,3.0976 0,1.7106 1.3966,3.0974 3.1194,3.0974 z"
       fill="#534741"
       id="path20"
       clip-path="url(#clipPath37)" />
    <path
       d="m 19.7902,31.0082 c 0.6574,0 1.1903,-0.5292 1.1903,-1.182 0,-0.6528 -0.5329,-1.182 -1.1903,-1.182 -0.6575,0 -1.1905,0.5292 -1.1905,1.182 0,0.6528 0.533,1.182 1.1905,1.182 z"
       fill="#ffffff"
       id="path21"
       clip-path="url(#clipPath36)" />
    <path
       d="m 41.354,29.4999 c 1.7228,0 3.1194,-1.3869 3.1194,-3.0976 0,-1.7108 -1.3966,-3.0976 -3.1194,-3.0976 -1.7228,0 -3.1194,1.3868 -3.1194,3.0976 0,1.7107 1.3966,3.0976 3.1194,3.0976 z"
       fill="#534741"
       id="path22"
       clip-path="url(#clipPath35)" />
    <path
       d="m 41.7518,26.6773 c 0.642,0 1.1622,-0.5168 1.1622,-1.1543 0,-0.6375 -0.5202,-1.1543 -1.1622,-1.1543 -0.642,0 -1.1625,0.5168 -1.1625,1.1543 0,0.6375 0.5205,1.1543 1.1625,1.1543 z"
       fill="#ffffff"
       id="path23"
       clip-path="url(#clipPath34)" />
    <path
       d="m 33.984,32.8349 c -0.6084,-1.5042 -2.3907,-1.2417 -2.8648,-1.1417 -0.4813,0.0694 -2.2437,0.4334 -2.2926,2.0544 0,0 -0.0644,1.1847 0.9373,1.9461 0,0 0.7106,0.6263 2.0309,0.454 v 0.0056 c 0.0422,-0.0068 0.0811,-0.0154 0.1203,-0.0221 0.0392,-0.0056 0.0784,-0.0127 0.1191,-0.0195 v -0.0056 c 1.1566,-0.2667 1.7163,-1.0641 1.7163,-1.0641 0.6951,-1.0446 0.2335,-2.2057 0.2335,-2.2057 z"
       fill="#534741"
       id="path24"
       clip-path="url(#clipPath33)" />
    <path
       d="m 11.3482,56.19 c 1.9514,3.4158 1.9878,6.5994 0.3386,8.144 C 9.71581,66.1786 5.85786,63.9576 3.9051,60.5418 1.95374,57.1263 1.96073,53.2731 4.30655,51.9506 6.65238,50.6299 9.3969,52.7745 11.3497,56.19 Z"
       fill="#b2875b"
       id="path25"
       clip-path="url(#clipPath32)" />
    <path
       d="m 52.7549,56.5638 c -1.6521,3.5685 -1.4156,6.7439 0.3609,8.1424 2.1221,1.6724 5.7756,-0.8667 7.4292,-4.4352 1.6518,-3.5683 1.3161,-7.4077 -1.1345,-8.5257 -2.4507,-1.1195 -5.0023,1.2499 -6.6541,4.8185 z"
       fill="#b2875b"
       id="path26"
       clip-path="url(#clipPath31)" />
    <path
       d="m 31.5108,40.5163 c -1.9806,0 -3.1486,-0.9322 -3.206,-0.9794 -0.2392,-0.1944 -0.2728,-0.5443 -0.0769,-0.7821 0.1958,-0.2374 0.5483,-0.2708 0.7875,-0.0764 0.0518,0.0405 1.3555,1.0532 3.5753,0.6184 l 0.0531,-0.0098 c 2.2201,-0.4348 3.0398,-1.8614 3.0734,-1.921 0.1497,-0.2667 0.4881,-0.3655 0.7581,-0.2195 0.2701,0.1458 0.3708,0.4806 0.2252,0.7487 -0.0434,0.0791 -1.0799,1.9417 -3.8413,2.4821 l -0.0529,0.0098 c -0.4631,0.0902 -0.8969,0.1292 -1.2955,0.1292 z"
       fill="#534741"
       id="path27"
       clip-path="url(#clipPath30)" />
    <path
       d="m 32.5636,40.1139 c -0.2644,0 -0.4994,-0.1876 -0.5499,-0.4558 l -0.8701,-4.6934 c -0.0559,-0.3015 0.1455,-0.5917 0.4491,-0.6475 0.3049,-0.0554 0.596,0.1446 0.6518,0.4461 l 0.8702,4.6933 c 0.0559,0.3015 -0.1456,0.5918 -0.4492,0.6476 -0.0347,0.0053 -0.0683,0.0097 -0.1019,0.0097 z"
       fill="#534741"
       id="path28"
       clip-path="url(#clipPath29)" />
    <circle
       style="fill:#ffffff;stroke-width:2.131;stroke-linecap:round;stroke-linejoin:round"
       id="path57"
       cx="33.012566"
       cy="57.15308"
       r="9.9078302" />
    <g
       id="Layer_2_1_"
       transform="matrix(0.04549084,0,0,0.04549084,24.712206,49.454781)">
      <g
         id="Layer_1-2">
        <path
           class="st0"
           d="m 102.8,172 c -0.8,13.9 9.9,25.8 23.8,26.6 0.5,0 1,0 1.5,0 14,0 25.3,-11.3 25.2,-25.3 0,-14 -11.3,-25.3 -25.3,-25.2 -13.4,0 -24.5,10.5 -25.2,23.9 z"
           id="path1-3"
           style="fill:#0033ad" />
        <path
           class="st0"
           d="m 8.6,165.5 c -4.5,-0.3 -8.4,3.2 -8.6,7.7 -0.2,4.5 3.2,8.4 7.7,8.6 4.5,0.3 8.3,-3.2 8.6,-7.7 0.3,-4.5 -3.2,-8.3 -7.7,-8.6 z"
           id="path2"
           style="fill:#0033ad" />
        <path
           class="st0"
           d="m 101.2,25.4 c 4,-2 5.6,-7 3.6,-11 -2,-4 -7,-5.6 -11,-3.6 -4,2 -5.6,6.9 -3.6,10.9 2,4.1 6.9,5.8 11,3.7 -0.1,0 0,0 0,0 z"
           id="path3"
           style="fill:#0033ad" />
        <path
           class="st0"
           d="m 126.8,70.1 c 6.2,-3.1 8.7,-10.7 5.6,-16.9 -3.1,-6.2 -10.7,-8.7 -16.9,-5.6 -6.2,3.1 -8.7,10.7 -5.6,16.9 3.1,6.2 10.7,8.7 16.9,5.6 z"
           id="path4"
           style="fill:#0033ad" />
        <path
           class="st0"
           d="m 40.6,100.8 c 4.8,3.1 11.2,1.8 14.4,-3 3.1,-4.8 1.8,-11.2 -3,-14.4 -4.8,-3.1 -11.2,-1.8 -14.4,3 0,0 0,0 0,0 -3.2,4.8 -1.8,11.3 3,14.4 z"
           id="path5"
           style="fill:#0033ad" />
        <path
           class="st0"
           d="m 55.9,161 c -7,-0.4 -12.9,4.9 -13.3,11.9 -0.4,7 4.9,12.9 11.9,13.3 7,0.4 12.9,-4.9 13.3,-11.9 0,0 0,0 0,0 0.4,-6.9 -4.9,-12.9 -11.9,-13.3 z"
           id="path6"
           style="fill:#0033ad" />
        <path
           class="st0"
           d="m 42,245.7 c -5.1,2.6 -7.2,8.8 -4.6,14 2.6,5.1 8.8,7.2 14,4.6 5.1,-2.6 7.2,-8.8 4.6,-14 0,0 0,0 0,0 -2.6,-5.1 -8.9,-7.2 -14,-4.6 z"
           id="path7"
           style="fill:#0033ad" />
        <path
           class="st0"
           d="m 91,134.9 c 6.9,4.5 16.1,2.6 20.5,-4.3 4.5,-6.9 2.6,-16.1 -4.3,-20.5 -6.9,-4.5 -16.1,-2.6 -20.5,4.3 -4.5,6.8 -2.6,16 4.3,20.5 z"
           id="path8"
           style="fill:#0033ad" />
        <path
           class="st0"
           d="m 246.5,69.1 c 5.8,3.8 13.7,2.2 17.5,-3.6 3.8,-5.8 2.2,-13.7 -3.6,-17.5 -5.8,-3.8 -13.7,-2.2 -17.5,3.6 0,0 0,0 0,0 -3.9,5.9 -2.3,13.7 3.6,17.5 z"
           id="path9"
           style="fill:#0033ad" />
        <path
           class="st0"
           d="m 272.3,24.6 c 3.8,2.5 8.8,1.4 11.3,-2.4 2.5,-3.8 1.4,-8.8 -2.4,-11.3 -3.8,-2.5 -8.8,-1.4 -11.3,2.3 -2.4,3.8 -1.3,8.9 2.4,11.4 z"
           id="path10-6"
           style="fill:#0033ad" />
        <path
           class="st0"
           d="m 248.4,147.9 c -13.9,-0.8 -25.9,9.9 -26.6,23.8 -0.8,13.9 9.9,25.9 23.8,26.6 0.5,0 1,0 1.4,0 13.9,0 25.2,-11.3 25.2,-25.3 0.1,-13.3 -10.4,-24.4 -23.8,-25.1 z"
           id="path11-7"
           style="fill:#0033ad" />
        <path
           class="st0"
           d="m 135.1,133.1 c 4.3,8.5 13,13.9 22.6,13.9 13.9,0 25.2,-11.3 25.2,-25.3 0,-3.9 -0.9,-7.8 -2.7,-11.4 -6.3,-12.5 -21.5,-17.5 -33.9,-11.2 -12.5,6.4 -17.5,21.6 -11.2,34 z"
           id="path12-5"
           style="fill:#0033ad" />
        <path
           class="st0"
           d="m 333,100.8 c 5.1,-2.6 7.1,-8.9 4.5,-14 -2.6,-5.1 -8.9,-7.1 -14,-4.5 -5.1,2.6 -7.1,8.8 -4.6,13.9 2.7,5.1 8.9,7.2 14.1,4.6 z"
           id="path13-3"
           style="fill:#0033ad" />
        <path
           class="st0"
           d="m 269,108.8 c -7.3,3.7 -10.3,12.6 -6.6,19.9 3.7,7.3 12.6,10.3 19.9,6.6 7.3,-3.7 10.3,-12.6 6.6,-19.9 -3.7,-7.3 -12.6,-10.2 -19.9,-6.6 z"
           id="path14-5"
           style="fill:#0033ad" />
        <path
           class="st0"
           d="m 186.5,20.8 c 5.7,0.3 10.6,-4.1 11,-9.8 0.4,-5.7 -4.1,-10.6 -9.8,-11 -5.7,-0.3 -10.6,4 -11,9.7 -0.3,5.8 4.1,10.7 9.8,11.1 z"
           id="path15-6"
           style="fill:#0033ad" />
        <path
           class="st0"
           d="m 186.4,86.1 c 8.2,0.5 15.2,-5.8 15.6,-14 0.5,-8.2 -5.8,-15.2 -14,-15.6 -8.2,-0.5 -15.2,5.8 -15.6,14 -0.4,8.2 5.8,15.2 14,15.6 z"
           id="path16-2"
           style="fill:#0033ad" />
        <path
           class="st0"
           d="m 106,237.7 c 7.3,-3.7 10.3,-12.6 6.6,-19.9 -3.7,-7.3 -12.6,-10.3 -19.9,-6.6 -7.3,3.7 -10.3,12.6 -6.6,19.9 3.7,7.3 12.6,10.3 19.9,6.6 z"
           id="path17-9"
           style="fill:#0033ad" />
        <path
           class="st0"
           d="m 196,107.8 c -7.6,11.7 -4.4,27.3 7.3,34.9 11.7,7.6 27.3,4.4 34.9,-7.3 7.6,-11.7 4.4,-27.3 -7.3,-34.9 -4.1,-2.7 -8.9,-4.1 -13.8,-4.1 -8.5,0 -16.4,4.3 -21.1,11.4 z"
           id="path18-1"
           style="fill:#0033ad" />
        <path
           class="st0"
           d="m 239.9,213.4 c -6.3,-12.5 -21.5,-17.5 -33.9,-11.2 -12.5,6.3 -17.5,21.5 -11.2,33.9 6.3,12.5 21.5,17.5 33.9,11.2 0,0 0,0 0,0 12.4,-6.2 17.5,-21.2 11.3,-33.7 0,-0.1 0,-0.1 -0.1,-0.2 z"
           id="path19-2"
           style="fill:#0033ad" />
        <path
           class="st0"
           d="m 284,211.6 c -6.9,-4.5 -16.1,-2.6 -20.5,4.3 -4.5,6.9 -2.6,16.1 4.3,20.5 6.9,4.5 16.1,2.6 20.5,-4.3 4.5,-6.8 2.6,-16 -4.3,-20.5 z"
           id="path20-7"
           style="fill:#0033ad" />
        <path
           class="st0"
           d="m 332.4,173.7 c 0.4,-7 -4.9,-12.9 -11.9,-13.3 -7,-0.4 -12.9,4.9 -13.3,11.9 -0.4,7 4.9,12.9 11.9,13.3 0,0 0,0 0,0 6.9,0.4 12.9,-5 13.3,-11.9 z"
           id="path21-0"
           style="fill:#0033ad" />
        <path
           class="st0"
           d="m 367.3,164.7 c -4.5,-0.3 -8.4,3.2 -8.6,7.7 -0.2,4.5 3.2,8.4 7.7,8.6 4.5,0.3 8.3,-3.2 8.6,-7.7 0.2,-4.5 -3.2,-8.3 -7.7,-8.6 z"
           id="path22-9"
           style="fill:#0033ad" />
        <path
           class="st0"
           d="m 334.4,245.7 c -4.8,-3.1 -11.2,-1.8 -14.4,3 -3.1,4.8 -1.8,11.2 3,14.4 4.8,3.1 11.2,1.8 14.4,-3 3.2,-4.8 1.8,-11.3 -3,-14.4 z"
           id="path23-3"
           style="fill:#0033ad" />
        <path
           class="st0"
           d="m 102.6,321.9 c -3.8,-2.5 -8.8,-1.4 -11.3,2.3 -2.5,3.8 -1.4,8.8 2.3,11.3 3.8,2.5 8.8,1.4 11.3,-2.3 0,0 0,0 0,0 2.6,-3.7 1.5,-8.8 -2.3,-11.3 z"
           id="path24-6"
           style="fill:#0033ad" />
        <path
           class="st0"
           d="m 273.8,321.1 c -4,2 -5.6,7 -3.6,11 2,4 7,5.6 11,3.6 4,-2 5.6,-6.9 3.6,-10.9 -2,-4.1 -6.9,-5.8 -11,-3.7 0.1,0 0,0 0,0 z"
           id="path25-0"
           style="fill:#0033ad" />
        <path
           class="st0"
           d="m 179,238.7 c 7.6,-11.7 4.4,-27.3 -7.3,-35 -11.7,-7.6 -27.3,-4.4 -35,7.3 -7.7,11.7 -4.4,27.3 7.3,35 4.1,2.7 8.9,4.1 13.8,4.1 8.6,0.1 16.5,-4.2 21.2,-11.4 z"
           id="path26-6"
           style="fill:#0033ad" />
        <path
           class="st0"
           d="m 128.5,277.4 c -5.8,-3.8 -13.7,-2.2 -17.5,3.6 -3.8,5.8 -2.2,13.7 3.6,17.5 5.8,3.8 13.7,2.2 17.5,-3.6 0,0 0,0 0,0 3.9,-5.8 2.3,-13.7 -3.6,-17.5 z"
           id="path27-2"
           style="fill:#0033ad" />
        <path
           class="st0"
           d="m 187.4,325.7 c -5.7,-0.3 -10.6,4.1 -11,9.8 -0.4,5.7 4.1,10.6 9.8,11 5.7,0.3 10.6,-4 11,-9.7 0.3,-5.8 -4.1,-10.7 -9.8,-11.1 z"
           id="path28-6"
           style="fill:#0033ad" />
        <path
           class="st0"
           d="m 187.5,260.4 c -8.2,-0.5 -15.2,5.8 -15.6,14 -0.5,8.2 5.8,15.2 14,15.6 8.2,0.4 15.2,-5.8 15.6,-14 0.5,-8.1 -5.8,-15.2 -14,-15.6 z"
           id="path29"
           style="fill:#0033ad" />
        <path
           class="st0"
           d="m 248.2,276.4 c -6.2,3.2 -8.7,10.8 -5.5,17 3.2,6.2 10.8,8.7 17,5.5 6.2,-3.1 8.7,-10.7 5.6,-16.9 -3.2,-6.2 -10.8,-8.8 -17.1,-5.6 z"
           id="path30"
           style="fill:#0033ad" />
      </g>
    </g>
  </g>
</svg>
